<svg clip-rule="evenodd" fill-rule="evenodd" height="662" stroke-linejoin="round" stroke-miterlimit="2" viewBox="0 0 148 662" width="148" xmlns="http://www.w3.org/2000/svg"><g fill="none" stroke="#000" stroke-width=".42" transform="matrix(2.40273 0 0 2.40273 -555.704 -321.896)"><path d="m265.425 145.779v-7.872c2.176-.768 2.816-1.088 2.816-1.728 0-.896-.256-.96-10.688-1.792.256 2.688.384 4.032.384 6.464v4.928h-14.976c-1.664 0-2.752-.128-4.8-.576l.448 2.24c1.92-.192 3.136-.32 4.288-.32h15.04v12.864h-19.712c-1.664 0-2.944-.128-4.8-.512l.384 2.24c1.536-.256 2.944-.384 4.416-.384h52.48c.512 0 .832-.192.832-.448 0-.128-.128-.32-.448-.576-3.2-2.816-4.224-3.648-7.488-6.08l-5.312 5.76h-12.864v-12.864h21.504c.512 0 .832-.192.832-.448 0-.128-.128-.32-.448-.64-3.008-2.56-3.968-3.328-7.104-5.696l-5.184 5.44zm-16.192 42.88h25.792v2.752c0 1.152.384 1.344 2.432 1.344 2.112 0 4.096-.256 4.608-.576.384-.256.512-.512.512-1.28-.192-5.056-.256-7.296-.256-18.56 1.856-.96 2.432-1.408 2.432-2.048 0-.32-.32-.64-.96-1.152-2.304-1.6-3.072-2.112-5.44-3.776l-3.904 4.096h-24.448c-3.392-1.92-4.48-2.496-8.256-4.16.192 3.968.256 4.928.256 11.84 0 5.952-.064 8.512-.256 14.336 0 1.216.384 1.408 2.56 1.408 4.224 0 4.864-.192 4.928-1.536zm0-17.856h25.792v16.512h-25.792z"/><path d="m232.977 264.563c2.688-2.24 3.776-3.2 5.248-4.8 4.096-4.48 6.592-9.28 7.616-14.592.896-5.184.96-6.336 1.152-18.944.128-7.936.192-12.736.256-14.336 1.92-.704 2.56-1.152 2.56-1.728 0-.96-1.984-1.216-10.688-1.664.384 2.944.576 8.256.576 15.552v2.048c-.064 1.344-.064 1.344-.064 4.096-.064 8.064-.064 9.408-.448 13.568-.64 7.936-2.496 13.632-6.72 20.352zm25.536-54.272c.256 2.24.256 3.136.32 5.824.064 4.864.128 16.192.128 21.76 0 6.144-.064 9.152-.128 13.504-.192 4.544-.192 4.544-.192 6.4.064.96.384 1.28 1.472 1.28 1.856 0 4.864-.32 5.44-.576.448-.192.64-.576.64-1.216v-.256c-.128-5.76-.256-16.896-.256-25.408 0-.896.064-15.04.064-17.92 2.304-.832 2.56-1.024 2.56-1.728 0-.32-.192-.512-.64-.704-.896-.32-4.16-.64-9.408-.96zm19.712-1.984c.384 3.648.512 11.584.512 26.432 0 10.432-.128 19.008-.384 28.032.128.896.576 1.152 2.112 1.152 1.856 0 4.352-.256 4.992-.512.576-.256.768-.512.832-1.216 0-2.176-.064-2.88-.128-6.592-.192-8-.256-15.808-.256-23.68 0-3.968 0-9.152.128-20.16 2.048-.832 2.56-1.152 2.56-1.792 0-.896-1.024-1.088-10.368-1.664z"/><path d="m266.001 331.955h14.72v3.392c0 1.216.32 1.408 2.24 1.408 2.496 0 4.16-.256 4.672-.768.192-.256.256-.512.256-1.152-.064-4.864-.064-7.872-.064-14.272v-11.264c1.728-.96 2.304-1.472 2.304-1.984 0-.256-.256-.576-.768-.96-2.176-1.792-2.944-2.304-5.44-4.096-1.664 1.664-2.176 2.176-3.84 3.968h-13.824c-.896-.64-1.088-.768-1.92-1.28 2.944-5.44 5.312-12.608 6.656-19.84h20.032c.512 0 .768-.128.768-.384 0-.192-.128-.384-.384-.64-2.944-2.56-3.904-3.328-7.04-5.76l-4.928 5.44h-22.208c-1.28 0-2.752-.192-4.16-.576l.384 2.304c1.216-.256 2.432-.384 3.776-.384h5.76c-1.728 14.72-6.016 25.92-14.272 36.928l.576.576c5.056-3.968 6.4-5.312 9.728-9.472 0 12.352-.064 13.632-.192 22.528.064 1.216.448 1.472 2.24 1.472 3.968 0 4.928-.32 4.928-1.856zm0-24.384h14.784v23.04h-14.784zm-18.24-15.168v-10.688c2.112-.64 2.688-1.024 2.688-1.664 0-.768-1.088-1.024-5.184-1.408-1.024-.064-2.56-.256-4.608-.448.32 2.304.384 3.968.384 7.808v6.4h-4.48c-1.344 0-2.304-.128-3.84-.576l.384 2.24c1.152-.192 2.304-.32 3.328-.32h4.608v13.376c-4.032 1.088-6.528 1.536-9.152 1.6 2.24 8 2.688 9.152 3.392 9.152.64 0 1.024-.896 1.152-2.88 1.92-.896 2.624-1.216 4.608-2.24v15.808c0 .832-.192 1.024-.896 1.024h-.192c-2.624-.064-2.624-.064-8.256-.384v.768c5.312 1.472 6.592 2.688 6.848 6.208.064.768.256.96 1.024.96 2.112 0 4.864-.832 6.08-1.792 1.6-1.28 2.112-2.56 2.176-5.248-.064-6.528-.064-6.528-.064-9.088v-11.776c4.096-2.24 5.504-3.2 9.472-6.016l-.192-.704c-4.48 1.6-5.76 2.048-9.28 3.008v-11.776h9.728c.384 0 .64-.192.64-.384 0-.128-.064-.256-.32-.512-2.112-2.176-2.816-2.816-5.184-4.8-1.6 1.856-2.112 2.432-3.648 4.352z"/><path d="m232.593 409.075c4.224-1.92 6.08-2.816 8.192-4.16 7.488-4.544 13.376-11.136 17.216-19.2 3.264-6.848 4.608-12.864 5.312-23.488.512 7.552 1.088 11.392 2.496 16.896 2.176 8.384 5.376 15.168 9.728 20.48 2.944 3.52 8.448 8.32 9.664 8.32.32 0 .576-.192.832-.832 1.856-4.16 3.264-5.696 6.528-6.784l.064-.64c-5.312-1.792-8.32-3.264-12.16-6.144-6.656-4.992-11.072-11.52-13.824-20.288-1.664-5.312-2.56-10.688-2.56-14.976 0-.512 0-1.28.064-2.24 2.112-.768 2.688-1.152 2.688-1.664 0-.768-1.28-1.088-5.824-1.6-1.088-.064-2.88-.256-5.12-.512.128 1.664.192 2.368.192 3.648 0 2.88-.32 7.552-.704 10.944-.96 8.832-3.136 16-6.784 22.976-4.096 7.872-8.32 12.672-16.32 18.624z"/></g></svg>